<svg width="40" height="41" viewBox="0 0 40 41" fill="none" xmlns="http://www.w3.org/2000/svg">
<rect x="1" y="1.46997" width="38" height="38" rx="19" fill="white"/>
<rect x="1" y="1.46997" width="38" height="38" rx="19" stroke="white" stroke-width="2"/>
<path fill-rule="evenodd" clip-rule="evenodd" d="M19.9996 34.8701C23.8187 34.8701 27.4814 33.3529 30.1819 30.6524C32.8825 27.9519 34.3996 24.2892 34.3996 20.4701C34.3996 16.651 32.8825 12.9883 30.1819 10.2877C27.4814 7.58721 23.8187 6.07007 19.9996 6.07007C16.1805 6.07007 12.5178 7.58721 9.81727 10.2877C7.11675 12.9883 5.59961 16.651 5.59961 20.4701C5.59961 24.2892 7.11675 27.9519 9.81727 30.6524C12.5178 33.3529 16.1805 34.8701 19.9996 34.8701ZM26.6722 18.1427C27.0001 17.8032 27.1815 17.3485 27.1774 16.8765C27.1733 16.4046 26.984 15.9531 26.6503 15.6194C26.3165 15.2857 25.8651 15.0964 25.3931 15.0923C24.9212 15.0882 24.4665 15.2696 24.127 15.5975L18.1996 21.5249L15.8722 19.1975C15.5327 18.8696 15.078 18.6882 14.6061 18.6923C14.1341 18.6964 13.6827 18.8857 13.3489 19.2194C13.0152 19.5531 12.8259 20.0046 12.8218 20.4765C12.8177 20.9485 12.9991 21.4032 13.327 21.7427L16.927 25.3427C17.2646 25.6801 17.7223 25.8697 18.1996 25.8697C18.6769 25.8697 19.1347 25.6801 19.4722 25.3427L26.6722 18.1427Z" fill="#004B8D"/>
</svg>
