<svg width="16" height="17" viewBox="0 0 16 17" fill="none" xmlns="http://www.w3.org/2000/svg">
<path d="M8 1.69531C4.40938 1.69531 1.5 4.60469 1.5 8.19531V9.44531C1.5 9.86094 1.16562 10.1953 0.75 10.1953C0.334375 10.1953 0 9.86094 0 9.44531V8.19531C0 3.77656 3.58125 0.195312 8 0.195312C12.4187 0.195312 16 3.77656 16 8.19531V12.6984C16 14.2172 14.7688 15.4484 13.2469 15.4484L9.8 15.4453C9.54063 15.8922 9.05625 16.1953 8.5 16.1953H7.5C6.67188 16.1953 6 15.5234 6 14.6953C6 13.8672 6.67188 13.1953 7.5 13.1953H8.5C9.05625 13.1953 9.54063 13.4984 9.8 13.9453L13.25 13.9484C13.9406 13.9484 14.5 13.3891 14.5 12.6984V8.19531C14.5 4.60469 11.5906 1.69531 8 1.69531ZM4.5 6.69531H5C5.55312 6.69531 6 7.14219 6 7.69531V11.1953C6 11.7484 5.55312 12.1953 5 12.1953H4.5C3.39687 12.1953 2.5 11.2984 2.5 10.1953V8.69531C2.5 7.59219 3.39687 6.69531 4.5 6.69531ZM11.5 6.69531C12.6031 6.69531 13.5 7.59219 13.5 8.69531V10.1953C13.5 11.2984 12.6031 12.1953 11.5 12.1953H11C10.4469 12.1953 10 11.7484 10 11.1953V7.69531C10 7.14219 10.4469 6.69531 11 6.69531H11.5Z" fill="#0071F9"/>
</svg>
