<svg width="17" height="17" viewBox="0 0 17 17" fill="none" xmlns="http://www.w3.org/2000/svg">
<path d="M8.20703 1.94992C4.61641 1.94992 1.70703 4.8593 1.70703 8.44992V9.69992C1.70703 10.1155 1.37266 10.4499 0.957031 10.4499C0.541406 10.4499 0.207031 10.1155 0.207031 9.69992V8.44992C0.207031 4.03117 3.78828 0.449921 8.20703 0.449921C12.6258 0.449921 16.207 4.03117 16.207 8.44992V12.953C16.207 14.4718 14.9758 15.703 13.4539 15.703L10.007 15.6999C9.74766 16.1468 9.26328 16.4499 8.70703 16.4499H7.70703C6.87891 16.4499 6.20703 15.778 6.20703 14.9499C6.20703 14.1218 6.87891 13.4499 7.70703 13.4499H8.70703C9.26328 13.4499 9.74766 13.753 10.007 14.1999L13.457 14.203C14.1477 14.203 14.707 13.6437 14.707 12.953V8.44992C14.707 4.8593 11.7977 1.94992 8.20703 1.94992ZM4.70703 6.94992H5.20703C5.76016 6.94992 6.20703 7.3968 6.20703 7.94992V11.4499C6.20703 12.003 5.76016 12.4499 5.20703 12.4499H4.70703C3.60391 12.4499 2.70703 11.553 2.70703 10.4499V8.94992C2.70703 7.8468 3.60391 6.94992 4.70703 6.94992ZM11.707 6.94992C12.8102 6.94992 13.707 7.8468 13.707 8.94992V10.4499C13.707 11.553 12.8102 12.4499 11.707 12.4499H11.207C10.6539 12.4499 10.207 12.003 10.207 11.4499V7.94992C10.207 7.3968 10.6539 6.94992 11.207 6.94992H11.707Z" fill="#004B8D"/>
</svg>
