<svg width="17" height="17" viewBox="0 0 17 17" fill="none" xmlns="http://www.w3.org/2000/svg">
<path d="M3.736 8.94992H3.74267M8.40267 8.94992H8.40934M13.0693 8.94992H13.076M4.40267 8.94992C4.40267 9.12673 4.33243 9.2963 4.20741 9.42132C4.08238 9.54634 3.91281 9.61658 3.736 9.61658C3.55919 9.61658 3.38962 9.54634 3.2646 9.42132C3.13957 9.2963 3.06934 9.12673 3.06934 8.94992C3.06934 8.7731 3.13957 8.60354 3.2646 8.47851C3.38962 8.35349 3.55919 8.28325 3.736 8.28325C3.91281 8.28325 4.08238 8.35349 4.20741 8.47851C4.33243 8.60354 4.40267 8.7731 4.40267 8.94992ZM9.06934 8.94992C9.06934 9.12673 8.9991 9.2963 8.87407 9.42132C8.74905 9.54634 8.57948 9.61658 8.40267 9.61658C8.22586 9.61658 8.05629 9.54634 7.93127 9.42132C7.80624 9.2963 7.736 9.12673 7.736 8.94992C7.736 8.7731 7.80624 8.60354 7.93127 8.47851C8.05629 8.35349 8.22586 8.28325 8.40267 8.28325C8.57948 8.28325 8.74905 8.35349 8.87407 8.47851C8.9991 8.60354 9.06934 8.7731 9.06934 8.94992ZM13.736 8.94992C13.736 9.12673 13.6658 9.2963 13.5407 9.42132C13.4157 9.54634 13.2461 9.61658 13.0693 9.61658C12.8925 9.61658 12.723 9.54634 12.5979 9.42132C12.4729 9.2963 12.4027 9.12673 12.4027 8.94992C12.4027 8.7731 12.4729 8.60354 12.5979 8.47851C12.723 8.35349 12.8925 8.28325 13.0693 8.28325C13.2461 8.28325 13.4157 8.35349 13.5407 8.47851C13.6658 8.60354 13.736 8.7731 13.736 8.94992Z" stroke="#6B7280" stroke-width="1.33333" stroke-linecap="round" stroke-linejoin="round"/>
</svg>
